# xmcd
#
# Track frame offsets: 
#        150
#        18800
#        41142
#        55592
#        73302
#        91982
#        121852
#        140677
#        165450
#        182792
#        201630
#
# Disc length: 2951 seconds
#
# Revision: 2
# Processed by: cddbd v1.5.2PL0 Copyright (c) Steve Scherf et al.
# Submitted via: ExactAudioCopy v0.99pb4
#
DISCID=9c0b850b
DTITLE=Various Artist - L.A. Blues Authority Vol. 4
DYEAR=1993
DGENRE=Blues
TTITLE0=Leslie West - Crosscut Saw
TTITLE1=Craig Erickson - Floodin' In California
TTITLE2=Steve Hunter - Night Stomp
TTITLE3=Kevin Russel - Oh Pretty Woman
TTITLE4=Tony Spinner - Down Don't Bother Me
TTITLE5=Pat Travers - The Sky is Crying
TTITLE6=jon Butcher - Killing Floor
TTITLE7=Frank Marino - I'll Play the Blues for You
TTITLE8=Rick derringer - Born Under a Bad Sign
TTITLE9=Ricky Medlocke - Wrapped Up In Love, Again
TTITLE10=All-Stars - Albert's Jam
EXTD=
EXTT0=
EXTT1=
EXTT2=
EXTT3=
EXTT4=
EXTT5=
EXTT6=
EXTT7=
EXTT8=
EXTT9=
EXTT10=
PLAYORDER=
